<svg height="1102.97pt" viewBox="1 1 1102.97 1102.97" width="1102.97pt" xmlns="http://www.w3.org/2000/svg"><path d="m1047.847656 18.382812h-992.699218c-20.304688 0-36.765626 16.460938-36.765626 36.769532v992.699218c0 20.304688 16.460938 36.765626 36.765626 36.765626h992.699218c20.308594 0 36.769532-16.460938 36.769532-36.765626v-992.703124c0-20.304688-16.460938-36.765626-36.769532-36.765626zm-496.347656 55.148438c107.25 0 210.097656 42.660156 285.859375 118.574219-157.558594-157.875-413.269531-158.132813-571.148437-.570313-.191407.1875-.378907.378906-.570313.570313 75.761719-75.914063 178.609375-118.574219 285.859375-118.574219zm257.367188 661.800781h-73.535157v73.535157-147.066407 73.53125zm-257.367188-441.199219c-48.765625-.050781-95.539062 19.332032-129.96875 53.863282 71.726562-71.78125 188.066406-71.820313 259.847656-.089844.03125.027344.058594.058594.089844.089844-34.429688-34.53125-81.203125-53.914063-129.96875-53.863282zm73.53125 183.835938c0 40.609375-32.921875 73.53125-73.53125 73.53125s-73.53125-32.921875-73.53125-73.53125c0-40.613281 32.921875-73.535156 73.53125-73.535156s73.53125 32.921875 73.53125 73.535156zm-73.53125-294.136719c-78 .015625-152.792969 31.03125-207.914062 86.21875 114.644531-114.828125 300.667968-114.976562 415.496093-.332031.113281.109375.222657.21875.332031.332031-55.121093-55.1875-129.914062-86.203125-207.914062-86.21875zm-257.367188 772.101563v73.53125l-36.765624-73.53125-36.769532 73.53125 36.769532-73.53125 36.765624 73.53125zm0-147.066406v-147.066407zm128.683594 220.597656h-36.765625v-147.066406 147.070312h36.765625zm18.382813-294.132813v-73.53125h36.769531c20.304688 0 36.765625 16.460938 36.765625 36.765625 0 20.304688-16.460937 36.769532-36.765625 36.769532h-36.769531c40.613281 0 73.535156 32.921874 73.535156 73.53125 0-40.613282-32.921875-73.535157-73.535156-73.535157zm220.601562 0h-73.535156v73.535157-147.066407 73.53125zm91.914063 220.601563h-73.53125v-73.535156 73.535156zm128.683594 73.53125h-36.765626v-147.066406 147.070312h36.765626zm0 0" fill="#ffd6a0"/><path d="m625.03125 477.96875c0 40.609375-32.921875 73.53125-73.53125 73.53125s-73.53125-32.921875-73.53125-73.53125c0-40.613281 32.921875-73.535156 73.53125-73.535156s73.53125 32.921875 73.53125 73.535156zm0 0" fill="#ff734f"/><path d="m514.734375 698.566406c0-20.304687-16.460937-36.765625-36.769531-36.765625h-36.765625v73.53125h36.765625c20.308594 0 36.769531-16.460937 36.769531-36.765625zm0 0" fill="#ffd6a0"/><g fill="#231f20"><path d="m278.617188 205.121094c150.382812-150.707032 394.46875-150.972656 545.175781-.585938.199219.195313.394531.390625.589843.585938 7.3125 7.042968 18.949219 6.824218 25.992188-.488282 6.871094-7.132812 6.855469-18.429687-.035156-25.542968-164.75-165.042969-432.101563-165.28125-597.148438-.53125-.175781.175781-.355468.355468-.53125.53125-7.3125 7.042968-7.53125 18.679687-.484375 25.992187 7.042969 7.3125 18.679688 7.53125 25.992188.488281.152343-.148437.300781-.296874.449219-.449218zm0 0"/><path d="m759.414062 288.433594c10.15625 0 18.382813-8.234375 18.382813-18.386719-.003906-4.882813-1.945313-9.5625-5.402344-13.011719-121.835937-121.996094-319.5-122.125-441.496093-.289062-.097657.097656-.195313.191406-.292969.289062-7.199219 7.1875-7.207031 18.851563-.015625 26.050782 7.1875 7.195312 18.847656 7.203124 26.046875.015624 107.46875-107.660156 281.867187-107.816406 389.527343-.34375.117188.113282.230469.230469.347657.34375 3.433593 3.40625 8.066406 5.324219 12.902343 5.332032zm0 0"/><path d="m694.46875 360.992188c7.175781-7.175782 7.175781-18.8125 0-25.992188-78.898438-78.957031-206.863281-79.007812-285.824219-.113281-.039062.039062-.074219.074219-.113281.113281-7.050781 7.304688-6.847656 18.941406.453125 25.992188 7.125 6.882812 18.417969 6.882812 25.542969 0 64.605468-64.585938 169.335937-64.585938 233.945312 0 7.179688 7.179687 18.816406 7.179687 25.996094 0zm0 0"/><path d="m643.417969 477.96875c0-50.765625-41.152344-91.917969-91.917969-91.917969s-91.917969 41.152344-91.917969 91.917969c0 50.761719 41.152344 91.914062 91.917969 91.914062 50.738281-.058593 91.855469-41.175781 91.917969-91.914062zm-91.917969 55.148438c-30.457031 0-55.148438-24.691407-55.148438-55.148438 0-30.460938 24.691407-55.152344 55.148438-55.152344s55.148438 24.691406 55.148438 55.152344c0 30.457031-24.691407 55.148438-55.148438 55.148438zm0 0"/><path d="m386.050781 735.332031c0-10.152343-8.230469-18.382812-18.386719-18.382812h-55.148437v-36.765625h55.148437c10.15625 0 18.386719-8.230469 18.386719-18.382813 0-10.15625-8.230469-18.386719-18.386719-18.386719h-73.53125c-10.152343 0-18.382812 8.230469-18.382812 18.386719v147.066407c0 10.152343 8.230469 18.382812 18.382812 18.382812 10.152344 0 18.382813-8.230469 18.382813-18.382812v-55.152344h55.148437c10.15625 0 18.386719-8.230469 18.386719-18.382813zm0 0"/><path d="m496.347656 808.867188c0 10.152343 8.230469 18.382812 18.386719 18.382812 10.152344 0 18.382813-8.230469 18.382813-18.382812-.023438-23.804688-9.320313-46.660157-25.921876-63.71875 25.789063-16.089844 33.648438-50.042969 17.554688-75.832032-10.070312-16.136718-27.761719-25.933594-46.78125-25.898437h-36.769531c-10.152344 0-18.382813 8.230469-18.382813 18.382812v147.066407c0 10.152343 8.230469 18.382812 18.382813 18.382812 10.152343 0 18.382812-8.230469 18.382812-18.382812v-52.007813c22.019531 7.820313 36.738281 28.640625 36.765625 52.007813zm-36.765625-128.683594h18.386719c10.152344 0 18.382812 8.230468 18.382812 18.382812s-8.230468 18.382813-18.382812 18.382813h-18.386719zm0 0"/><path d="m661.800781 680.183594c10.152344 0 18.382813-8.230469 18.382813-18.382813 0-10.152343-8.230469-18.382812-18.382813-18.382812h-73.535156c-10.152344 0-18.382813 8.230469-18.382813 18.382812v147.066407c0 10.152343 8.230469 18.382812 18.382813 18.382812h73.535156c10.152344 0 18.382813-8.230469 18.382813-18.382812 0-10.152344-8.230469-18.382813-18.382813-18.382813h-55.152343v-36.769531h55.152343c10.152344 0 18.382813-8.230469 18.382813-18.382813 0-10.152343-8.230469-18.382812-18.382813-18.382812h-55.152343v-36.765625zm0 0"/><path d="m808.867188 680.183594c10.152343 0 18.382812-8.230469 18.382812-18.382813 0-10.152343-8.230469-18.382812-18.382812-18.382812h-73.535157c-10.152343 0-18.382812 8.230469-18.382812 18.382812v147.066407c0 10.152343 8.230469 18.382812 18.382812 18.382812h73.535157c10.152343 0 18.382812-8.230469 18.382812-18.382812 0-10.152344-8.230469-18.382813-18.382812-18.382813h-55.152344v-36.769531h55.152344c10.152343 0 18.382812-8.230469 18.382812-18.382813 0-10.152343-8.230469-18.382812-18.382812-18.382812h-55.152344v-36.765625zm0 0"/><path d="m294.132812 864.015625c-10.152343 0-18.382812 8.230469-18.382812 18.382813v69.195312l-1.929688-3.878906c-5.417968-9.085938-17.175781-12.058594-26.261718-6.640625-2.734375 1.628906-5.015625 3.910156-6.644532 6.640625l-1.929687 3.878906v-69.195312c0-10.152344-8.230469-18.382813-18.382813-18.382813-10.15625 0-18.386718 8.230469-18.386718 18.382813v147.070312c-.007813 10.152344 8.214844 18.390625 18.367187 18.398438 6.980469.007812 13.359375-3.9375 16.472657-10.183594l20.3125-40.644532 20.3125 40.644532c3.117187 6.234375 9.484374 10.167968 16.453124 10.167968 1.425782-.007812 2.839844-.167968 4.230469-.480468 8.300781-1.960938 14.160157-9.375 14.152344-17.902344v-147.070312c0-10.152344-8.230469-18.382813-18.382813-18.382813zm0 0"/><path d="m422.816406 900.785156c10.152344 0 18.382813-8.230468 18.382813-18.386718 0-10.152344-8.230469-18.382813-18.382813-18.382813h-73.53125c-10.15625 0-18.386718 8.230469-18.386718 18.382813 0 10.15625 8.230468 18.386718 18.386718 18.386718h18.382813v110.296875h-18.382813c-10.15625 0-18.386718 8.230469-18.386718 18.386719 0 10.152344 8.230468 18.382812 18.386718 18.382812h73.53125c10.152344 0 18.382813-8.230468 18.382813-18.382812 0-10.15625-8.230469-18.386719-18.382813-18.386719h-18.382812v-110.296875zm0 0"/><path d="m753.714844 900.785156c10.15625 0 18.386718-8.230468 18.386718-18.386718 0-10.152344-8.230468-18.382813-18.386718-18.382813h-73.53125c-10.152344 0-18.382813 8.230469-18.382813 18.382813v147.070312c0 10.152344 8.230469 18.382812 18.382813 18.382812s18.382812-8.230468 18.382812-18.382812v-55.152344h55.148438c10.15625 0 18.386718-8.230468 18.386718-18.382812s-8.230468-18.382813-18.386718-18.382813h-55.148438v-36.769531h55.148438zm0 0"/><path d="m882.398438 900.785156c10.15625 0 18.386718-8.230468 18.386718-18.386718 0-10.152344-8.230468-18.382813-18.386718-18.382813h-73.53125c-10.152344 0-18.382813 8.230469-18.382813 18.382813 0 10.15625 8.230469 18.386718 18.382813 18.386718h18.382812v110.296875h-18.382812c-10.152344 0-18.382813 8.230469-18.382813 18.386719 0 10.152344 8.230469 18.382812 18.382813 18.382812h73.53125c10.15625 0 18.386718-8.230468 18.386718-18.382812 0-10.15625-8.230468-18.386719-18.386718-18.386719h-18.382813v-110.296875zm0 0"/><path d="m606.648438 937.550781h-110.300782c-10.152344 0-18.382812 8.230469-18.382812 18.382813s8.230468 18.382812 18.382812 18.382812h110.300782c10.15625 0 18.382812-8.230468 18.382812-18.382812s-8.226562-18.382813-18.382812-18.382813zm0 0"/><path d="m1047.847656 0h-992.699218c-30.457032 0-55.148438 24.691406-55.148438 55.148438v992.699218c0 30.460938 24.691406 55.152344 55.148438 55.152344h992.699218c30.460938 0 55.152344-24.691406 55.152344-55.152344v-992.699218c0-30.457032-24.691406-55.148438-55.152344-55.148438zm18.386719 1047.847656c0 10.15625-8.230469 18.386719-18.386719 18.386719h-992.699218c-10.152344 0-18.382813-8.230469-18.382813-18.386719v-992.699218c0-10.152344 8.230469-18.382813 18.382813-18.382813h992.699218c10.15625 0 18.386719 8.230469 18.386719 18.382813zm0 0"/></g></svg>