<?xml version="1.0" encoding="iso-8859-1"?>
<!-- Generator: Adobe Illustrator 21.0.0, SVG Export Plug-In . SVG Version: 6.00 Build 0)  -->
<svg version="1.1" id="Capa_1" xmlns="http://www.w3.org/2000/svg" xmlns:xlink="http://www.w3.org/1999/xlink" x="0px" y="0px"
	 viewBox="0 0 512 512" style="enable-background:new 0 0 512 512;" xml:space="preserve">
<path style="fill:#F5B955;" d="M295.985,375.602c7.215-48.436,5.575-141.724,5.575-141.958
	c0-103.265-51.644-165.412-137.699-165.412S26.163,130.379,26.163,233.644c0,0.234-1.64,93.522,5.576,141.958"/>
<path style="fill:#ED7161;" d="M272.421,367.258h-35.933v52.841H91.236v-52.841H55.303C29.081,371.972,10,394.788,10,421.431V492.9
	h307.724v-71.469C317.724,394.789,298.643,371.972,272.421,367.258z"/>
<path d="M274.36,466.84c-0.65,0-1.31-0.07-1.95-0.2s-1.27-0.32-1.88-0.57c-0.6-0.25-1.18-0.56-1.72-0.92
	c-0.55-0.359-1.06-0.779-1.52-1.239c-0.46-0.46-0.88-0.98-1.25-1.521c-0.36-0.55-0.67-1.13-0.92-1.729
	c-0.25-0.601-0.44-1.23-0.57-1.87c-0.13-0.65-0.19-1.3-0.19-1.96c0-2.63,1.07-5.21,2.93-7.07c0.46-0.46,0.97-0.88,1.52-1.24
	c0.54-0.359,1.12-0.67,1.72-0.92c0.61-0.25,1.24-0.439,1.88-0.57c1.28-0.26,2.61-0.26,3.9,0c0.64,0.131,1.27,0.32,1.87,0.57
	c0.61,0.25,1.19,0.561,1.73,0.92c0.55,0.36,1.06,0.78,1.52,1.24c1.86,1.86,2.93,4.44,2.93,7.07c0,0.66-0.07,1.31-0.2,1.96
	c-0.12,0.64-0.32,1.27-0.57,1.87s-0.56,1.18-0.92,1.729c-0.36,0.54-0.78,1.061-1.24,1.521s-0.97,0.88-1.52,1.239
	c-0.54,0.36-1.12,0.67-1.73,0.92c-0.6,0.25-1.23,0.44-1.87,0.57C275.67,466.77,275.01,466.84,274.36,466.84z"/>
<path style="fill:#FEDBAB;" d="M72.664,198.333v43.705c0,36.659,23.687,68.01,57.22,80.891l0.033,44.329H91.236v52.841h145.253
	v-52.841h-38.682l0.033-44.329c33.533-12.881,57.221-44.232,57.221-80.891V198.65"/>
<path style="fill:#F5B955;" d="M163.862,113.388c-49.172,0-91.198,40.232-91.198,89.404v16.298h92.379l30.446-33.562l30.447,33.562
	h29.125v-16.298C255.06,153.619,213.034,113.388,163.862,113.388z"/>
<path d="M306.415,373.264c6.384-47.614,5.296-130.151,5.147-139.64l-0.001-0.053c-0.013-53.012-13.461-97.189-38.892-127.754
	c-25.902-31.13-63.527-47.585-108.807-47.585S80.958,74.688,55.055,105.817c-25.431,30.564-38.879,74.738-38.892,127.75
	l-0.001,0.057c-0.149,9.489-1.237,92.026,5.148,139.64C8.114,385.248,0,402.511,0,421.432V492.9c0,5.522,4.477,10,10,10h307.724
	c5.523,0,10-4.478,10-10v-71.469C327.724,402.512,319.611,385.248,306.415,373.264z M36.16,233.939l0.003-0.295
	c0-97.314,47.738-155.412,127.699-155.412s127.699,58.098,127.699,155.412l0.003,0.295c0.138,8.739,1.088,80.524-3.871,127.439
	c-4.272-1.774-8.788-3.115-13.502-3.963c-0.584-0.105-1.176-0.158-1.77-0.158h-64.607l0.021-27.7
	c34.987-16.152,57.226-49.812,57.226-87.52V198.65c0-0.669-0.066-1.322-0.192-1.955c-1.519-24.127-12.034-46.736-29.995-64.212
	c-19.282-18.763-44.501-29.096-71.012-29.096s-51.73,10.333-71.013,29.096c-17.846,17.364-28.341,39.796-29.964,63.75
	c-0.145,0.677-0.221,1.379-0.221,2.1v4.303c0,0.052,0,0.103,0,0.155v16.299c0,0.013,0,0.025,0,0.038v22.91
	c0,37.708,22.238,71.367,57.225,87.52l0.021,27.7H55.303c-0.593,0-1.186,0.053-1.77,0.158c-4.714,0.847-9.23,2.188-13.502,3.963
	C35.072,314.464,36.022,242.678,36.16,233.939z M139.884,322.921c-0.003-4.136-2.553-7.844-6.414-9.327
	c-30.864-11.855-50.806-39.942-50.806-71.556V229.09h82.378c2.821,0,5.511-1.191,7.407-3.281l23.04-25.397l23.041,25.397
	c1.895,2.09,4.585,3.281,7.406,3.281h19.125v12.948c0,31.613-19.943,59.7-50.807,71.556c-3.861,1.483-6.411,5.191-6.414,9.327
	l-0.033,44.329c-0.002,2.654,1.051,5.199,2.926,7.076s4.42,2.932,7.074,2.932h28.682v32.841H101.235v-32.841h28.682
	c2.653,0,5.198-1.055,7.074-2.932s2.928-4.422,2.926-7.076L139.884,322.921z M245.061,209.09h-14.695l-27.471-30.281
	c-1.896-2.09-4.585-3.281-7.406-3.281s-5.511,1.191-7.407,3.281l-27.47,30.281H82.664v-6.443
	c0.083-42.978,37.233-79.259,81.198-79.259c44.014,0,81.198,36.362,81.198,79.403v6.299H245.061z M307.724,482.9H20v-16.065h215.844
	c5.523,0,10-4.478,10-10s-4.477-10-10-10H20v-25.403c0-21.542,15.19-39.985,36.239-44.174h24.997V420.1c0,5.522,4.477,10,10,10
	h145.253c5.523,0,10-4.478,10-10v-42.842h24.997c21.049,4.188,36.239,22.632,36.239,44.174V482.9H307.724z"/>
<path d="M210.678,255.406h-8.772c-5.523,0-10-4.478-10-10s4.477-10,10-10h8.772c5.523,0,10,4.478,10,10
	S216.201,255.406,210.678,255.406z"/>
<path d="M125.818,255.406h-8.772c-5.523,0-10-4.478-10-10s4.477-10,10-10h8.772c5.523,0,10,4.478,10,10
	S131.341,255.406,125.818,255.406z"/>
<path d="M163.862,305.94c-5.738,0-11.477-2.185-15.845-6.553c-3.905-3.905-3.905-10.237,0-14.143c3.905-3.904,10.237-3.904,14.143,0
	c0.583,0.583,1.248,0.705,1.703,0.705s1.12-0.122,1.703-0.705c3.905-3.904,10.237-3.904,14.143,0c3.905,3.905,3.905,10.237,0,14.143
	C175.339,303.756,169.601,305.94,163.862,305.94z"/>
<path style="fill:#26CFAD;" d="M484.674,19.099H350.987c-9.569,0-17.326,7.757-17.326,17.326v92.168
	c0,9.569,7.757,17.326,17.326,17.326h32.339v27.776l44.028-27.776h57.32c9.569,0,17.326-7.757,17.326-17.326V36.425
	C502,26.857,494.243,19.099,484.674,19.099z"/>
<path d="M383.326,183.694c-1.66,0-3.323-0.413-4.829-1.243c-3.19-1.76-5.171-5.114-5.171-8.757v-17.775h-22.339
	c-15.067,0-27.326-12.259-27.326-27.326V36.426c0-15.067,12.258-27.326,27.326-27.326h133.688C499.742,9.1,512,21.358,512,36.426
	v92.167c0,15.067-12.258,27.326-27.326,27.326h-54.43l-41.583,26.233C387.035,183.178,385.182,183.694,383.326,183.694z
	 M350.987,29.1c-4.04,0-7.326,3.286-7.326,7.326v92.167c0,4.04,3.286,7.326,7.326,7.326h32.339c5.523,0,10,4.478,10,10v9.644
	l28.692-18.102c1.597-1.007,3.447-1.542,5.335-1.542h57.32c4.04,0,7.326-3.286,7.326-7.326V36.426c0-4.04-3.286-7.326-7.326-7.326
	C484.673,29.1,350.987,29.1,350.987,29.1z"/>
<path d="M426.967,53.069c0,4.128-3.911,7.822-8.8,7.822c-4.998,0-8.909-3.694-8.909-7.822c0-4.129,3.911-7.714,8.909-7.714
	C423.056,45.355,426.967,48.94,426.967,53.069z M426.641,75.993v41.393c0,2.607-3.803,5.215-8.474,5.215
	c-4.89,0-8.366-2.607-8.366-5.215V75.993c0-3.042,3.477-5.106,8.366-5.106C422.838,70.887,426.641,72.951,426.641,75.993z"/>
<path style="fill:#FFD36C;" d="M502,314.043c0-49.048-39.762-88.81-88.81-88.81s-88.81,39.762-88.81,88.81
	c0,38.662,24.705,71.554,58.496,83.75v21.306h60.629v-21.306C477.295,385.596,502,352.705,502,314.043z"/>
<rect x="388.65" y="419.1" style="fill:#6680C0;" width="49.09" height="32.724"/>
<path d="M413.19,215.232c-54.484,0-98.81,44.326-98.81,98.811c0,39.262,23.234,74.771,58.496,90.496v14.56
	c0,4.011,2.362,7.47,5.771,9.063v23.66c0,5.522,4.477,10,10,10h49.087c5.523,0,10-4.478,10-10v-23.66
	c3.409-1.593,5.771-5.052,5.771-9.063v-14.56C488.766,388.813,512,353.305,512,314.043C512,259.559,467.674,215.232,413.19,215.232z
	 M427.733,441.822h-29.087v-12.724h29.087V441.822z M440.109,388.387c-3.963,1.431-6.605,5.192-6.605,9.406v11.306h-40.629v-11.306
	c0-4.214-2.642-7.976-6.605-9.406c-31.038-11.202-51.891-41.079-51.891-74.344c0-43.456,35.354-78.811,78.81-78.811
	S492,270.587,492,314.043C492,347.308,471.147,377.185,440.109,388.387z"/>
<path d="M413.19,370.1c-2.559,0-5.118-0.977-7.071-2.929l-26.399-26.398c-3.905-3.905-3.906-10.237,0-14.143
	c3.905-3.904,10.237-3.904,14.142,0l19.328,19.328l19.327-19.328c3.905-3.904,10.237-3.904,14.143,0
	c3.905,3.905,3.905,10.237,0,14.143l-26.398,26.398C418.309,369.123,415.749,370.1,413.19,370.1z"/>
<g>
</g>
<g>
</g>
<g>
</g>
<g>
</g>
<g>
</g>
<g>
</g>
<g>
</g>
<g>
</g>
<g>
</g>
<g>
</g>
<g>
</g>
<g>
</g>
<g>
</g>
<g>
</g>
<g>
</g>
</svg>
