<svg height="496pt" viewBox="0 0 496 496" width="496pt" xmlns="http://www.w3.org/2000/svg"><path d="m128 303.761719 48-24-32-48 64 8v-48l40 40 40-40v48l64-8-32 48 48 24v40h-240zm0 0" fill="#ca5057"/><path d="m332 285.761719-12-6 14.542969-21.816407-46.542969 5.816407v-48l-40 40-40-40v48l-46.542969-5.816407 14.542969 21.816407-12 6 12 18-48 24v16h240v-16l-48-24zm0 0" fill="#dc6068"/><path d="m312 343.761719-32-32 8-40-40 24-40-24 8 40-32 32" fill="#df9363"/><path d="m248 319.761719-34.542969-20.726563 2.542969 12.726563-4 4 4 20-8 8h80l-8-8 4-20-4-4 2.542969-12.726563zm0 0" fill="#eea273"/><path d="m0 439.761719h232v-80c0-8.839844-7.160156-16-16-16h-48l-96-96h-72" fill="#599072"/><path d="m48 247.761719 96 96h48c8.839844 0 16 7.160156 16 16v80h-208v-192zm0 0" fill="#70b48f"/><path d="m0 279.761719h56l40 40v24h-96" fill="#85b6cf"/><path d="m32 279.761719h-32v64h72v-24zm0 0" fill="#94cce7"/><path d="m496 439.761719h-232v-80c0-8.839844 7.160156-16 16-16h48l96-96h72" fill="#7a6ac3"/><path d="m448 247.761719-96 96h-48c-8.839844 0-16 7.160156-16 16v80h208v-192zm0 0" fill="#a795e6"/><path d="m496 279.761719h-56l-40 40v24h96" fill="#85b6cf"/><path d="m464 279.761719-40 40v24h72v-64zm0 0" fill="#94cce7"/><path d="m408 439.761719c0 26.511719-21.492188 48-48 48s-48-21.488281-48-48c0-26.507813 21.492188-48 48-48s48 21.492187 48 48zm0 0" fill="#656665"/><path d="m184 439.761719c0 26.511719-21.492188 48-48 48s-48-21.488281-48-48c0-26.507813 21.492188-48 48-48s48 21.492187 48 48zm0 0" fill="#656665"/><path d="m376 439.761719c0 8.835937-7.164062 16-16 16s-16-7.164063-16-16c0-8.835938 7.164062-16 16-16s16 7.164062 16 16zm0 0" fill="#bab8b9"/><path d="m152 439.761719c0 8.835937-7.164062 16-16 16s-16-7.164063-16-16c0-8.835938 7.164062-16 16-16s16 7.164062 16 16zm0 0" fill="#bab8b9"/><path d="m264 359.761719v32h32v-48h-16c-8.839844 0-16 7.160156-16 16zm0 0" fill="#dbaf89"/><path d="m264 359.761719v8h32v-24h-16c-8.839844 0-16 7.160156-16 16zm0 0" fill="#cb9e78"/><path d="m232 359.761719v32h-32v-48h16c8.839844 0 16 7.160156 16 16zm0 0" fill="#dbaf89"/><path d="m232 359.761719v8h-32v-24h16c8.839844 0 16 7.160156 16 16zm0 0" fill="#cb9e78"/><path d="m248 7.761719-104 160h104" fill="#dc6068"/><path d="m248 167.761719h104l-104-160" fill="#ca5057"/><path d="m360 463.761719c-13.230469 0-24-10.769531-24-24s10.769531-24 24-24 24 10.769531 24 24-10.769531 24-24 24zm0-32c-4.414062 0-8 3.59375-8 8 0 4.410156 3.585938 8 8 8s8-3.589844 8-8c0-4.40625-3.585938-8-8-8zm0 0"/><path d="m360 495.761719c-30.871094 0-56-25.121094-56-56 0-30.878907 25.128906-56 56-56s56 25.121093 56 56c0 30.878906-25.128906 56-56 56zm0-96c-22.054688 0-40 17.945312-40 40 0 22.054687 17.945312 40 40 40s40-17.945313 40-40c0-22.054688-17.945312-40-40-40zm0 0"/><path d="m408 431.761719h88v16h-88zm0 0"/><path d="m312 447.761719h-48c-4.425781 0-8-3.582031-8-8v-80c0-13.230469 10.769531-24 24-24h44.6875l93.65625-93.65625c1.496094-1.503907 3.527344-2.34375 5.65625-2.34375h72v16h-68.6875l-93.65625 93.65625c-1.496094 1.503906-3.527344 2.34375-5.65625 2.34375h-48c-4.414062 0-8 3.59375-8 8v72h40zm0 0"/><path d="m296 399.761719h-32v-16h24v-40h16v48c0 4.417969-3.574219 8-8 8zm0 0"/><path d="m496 351.761719h-96c-4.425781 0-8-3.582031-8-8v-24c0-2.121094.839844-4.160157 2.34375-5.65625l40-40c1.496094-1.503907 3.527344-2.34375 5.65625-2.34375h56v16h-52.6875l-35.3125 35.3125v12.6875h88zm0 0"/><path d="m464 367.761719h32v16h-32zm0 0"/><path d="m136 463.761719c-13.230469 0-24-10.769531-24-24s10.769531-24 24-24 24 10.769531 24 24-10.769531 24-24 24zm0-32c-4.414062 0-8 3.59375-8 8 0 4.410156 3.585938 8 8 8s8-3.589844 8-8c0-4.40625-3.585938-8-8-8zm0 0"/><path d="m136 495.761719c-30.871094 0-56-25.121094-56-56 0-30.878907 25.128906-56 56-56s56 25.121093 56 56c0 30.878906-25.128906 56-56 56zm0-96c-22.054688 0-40 17.945312-40 40 0 22.054687 17.945312 40 40 40s40-17.945313 40-40c0-22.054688-17.945312-40-40-40zm0 0"/><path d="m0 431.761719h88v16h-88zm0 0"/><path d="m232 447.761719h-48v-16h40v-72c0-4.40625-3.585938-8-8-8h-48c-2.128906 0-4.160156-.839844-5.65625-2.34375l-93.65625-93.65625h-68.6875v-16h72c2.128906 0 4.160156.839843 5.65625 2.34375l93.65625 93.65625h44.6875c13.230469 0 24 10.769531 24 24v80c0 4.417969-3.574219 8-8 8zm0 0"/><path d="m232 399.761719h-32c-4.425781 0-8-3.582031-8-8v-48h16v40h24zm0 0"/><path d="m96 351.761719h-96v-16h88v-12.6875l-35.3125-35.3125h-52.6875v-16h56c2.128906 0 4.160156.839843 5.65625 2.34375l40 40c1.503906 1.496093 2.34375 3.535156 2.34375 5.65625v24c0 4.417969-3.574219 8-8 8zm0 0"/><path d="m0 367.761719h32v16h-32zm0 0"/><path d="m352 175.761719h-208c-2.9375 0-5.632812-1.609375-7.03125-4.183594-1.402344-2.574219-1.273438-5.710937.320312-8.175781l104-160c2.949219-4.535156 10.472657-4.535156 13.421876 0l104 160c1.59375 2.464844 1.722656 5.601562.320312 8.175781-1.398438 2.574219-4.09375 4.183594-7.03125 4.183594zm-193.257812-16h178.515624l-89.257812-137.320313zm0 0"/><path d="m240 127.761719h16v16h-16zm0 0"/><path d="m240 63.761719h16v48h-16zm0 0"/><path d="m364.425781 310.921875-48-24c-2.058593-1.023437-3.5625-2.886719-4.160156-5.105469-.585937-2.214844-.195313-4.582031 1.078125-6.496094l22.304688-33.453124-46.65625 5.832031c-2.265626.3125-4.566407-.417969-6.289063-1.945313-1.71875-1.511718-2.703125-3.695312-2.703125-5.992187v-28.6875l-26.34375 26.34375c-3.128906 3.128906-8.183594 3.128906-11.3125 0l-26.34375-26.34375v28.6875c0 2.296875-.984375 4.480469-2.703125 6-1.722656 1.519531-4.007813 2.25-6.289063 1.945312l-46.65625-5.832031 22.304688 33.453125c1.273438 1.914063 1.664062 4.273437 1.078125 6.496094-.589844 2.21875-2.101563 4.074219-4.160156 5.105469l-48 24-7.160157-14.3125 39.898438-19.941407-26.976562-40.464843c-1.734376-2.609376-1.800782-5.984376-.152344-8.648438 1.640625-2.664062 4.648437-4.152344 7.800781-3.726562l55.015625 6.863281v-38.9375c0-3.230469 1.945312-6.152344 4.9375-7.390625 3-1.234375 6.4375-.554688 8.71875 1.734375l34.34375 34.34375 34.34375-34.34375c2.289062-2.289063 5.726562-2.96875 8.71875-1.734375 2.992188 1.238281 4.9375 4.160156 4.9375 7.390625v38.9375l55.007812-6.875c3.160157-.414063 6.152344 1.074219 7.800782 3.730469 1.648437 2.664062 1.582031 6.039062-.152344 8.648437l-26.976562 40.460937 39.894531 19.945313zm0 0"/><path d="m306.34375 349.417969-32-32c-1.886719-1.886719-2.710938-4.601563-2.183594-7.222657l4.457032-22.265624-24.496094 14.695312c-2.527344 1.519531-5.707032 1.519531-8.234375 0l-24.496094-14.695312 4.457031 22.265624c.519532 2.621094-.296875 5.335938-2.183594 7.222657l-32 32-11.3125-11.3125 28.96875-28.976563-7.160156-35.800781c-.625-3.101563.648438-6.285156 3.230469-8.109375 2.585937-1.832031 6-1.945312 8.730469-.320312l35.878906 21.535156 35.878906-21.527344c2.722656-1.632812 6.144532-1.503906 8.730469.320312 2.582031 1.824219 3.855469 5 3.230469 8.113282l-7.160156 35.796875 28.96875 28.976562zm0 0"/></svg>